inDegrees=yes
name=IK-live
DataType=double
version=3
OpenSimVersion=4.1
endheader
time	pelvis_tilt	pelvis_list	pelvis_rotation	pelvis_tx	pelvis_ty	pelvis_tz	hip_flexion_r	hip_adduction_r	hip_rotation_r	knee_angle_r	ankle_angle_r	subtalar_angle_r	mtp_angle_r	hip_flexion_l	hip_adduction_l	hip_rotation_l	knee_angle_l	ankle_angle_l	subtalar_angle_l	mtp_angle_l	lumbar_extension	lumbar_bending	lumbar_rotation	neck_flex	neck_latbend	neck_rot	arm_flex_r	arm_add_r	arm_rot_r	elbow_flex_r	pro_sup_r	wrist_flex_r	wrist_dev_r	arm_flex_l	arm_add_l	arm_rot_l	elbow_flex_l	pro_sup_l	wrist_flex_l	wrist_dev_l
0	9.794576058544555	11.63523374923271	55.14799845540327	0.2341366603171506	0.04326292228651554	-1.326684523481465	-22.57117169827992	-1.591976316804377	-3.241458145969817	5.899560354604904	2.451982624139334	1.987972377786656	0	-24.74788768789517	-3.395140484746916	-11.58000132048591	9.793848132074926	-0.4439473045988533	4.250290820099795	0	-21.37711699760957	1.659277491615732	3.206407148933037	0	0	0	89.65788021204419	-15.00022625676859	0.008093492952008063	75.08191114163806	45.02844792571082	0	5.005611376507431	89.68419635311271	-14.99773058017669	0.004267746306530799	75.08171462146967	45.0152654300266	0	5.005611376507431
3.6616197	20.06039590931794	3.978980320431694	12.87769236958758	0.2341366603171506	0.04326292228651554	-1.326684523481465	-22.57117169827992	-1.591976316804377	-3.241458145969817	5.899560354604904	2.451982624139334	1.987972377786656	0	-24.74788768789517	-3.395140484746916	-11.58000132048591	9.793848132074926	-0.4439473045988533	4.250290820099795	0	-21.37711699760957	1.659277491615732	3.206407148933037	0	0	0	0.7826035018797173	-15.17649203935184	33.30828285094664	7.049855572431835	24.88207517289989	0	0.01600445795887205	5.873365945191645	-13.22989730614058	43.89424805808739	6.865655565856836	33.484005928976	0	0.01600445795887205
4.4881028	14.49973337873572	-20.42498571299287	-37.8821987788008	0.2341366603171506	0.04326292228651554	-1.326684523481465	-22.57117169827992	-1.591976316804377	-3.241458145969817	5.899560354604904	2.451982624139334	1.987972377786656	0	-24.74788768789517	-3.395140484746916	-11.58000132048591	9.793848132074926	-0.4439473045988533	4.250290820099795	0	-21.37711699760957	1.659277491615732	3.206407148933037	0	0	0	0.7788849808347269	-15.17650830372061	33.31310499097568	6.984760530134806	24.86971394319244	0	0.01037573594633377	5.869980779459872	-13.22973413949253	43.90143032542447	6.798768614212285	33.47792315954926	0	0.01037573594633377
10.6753796	13.99953271485507	9.153054728151595	38.15890126192679	0.2341366603171506	0.04326292228651554	-1.326684523481465	-22.57117169827992	-1.591976316804377	-3.241458145969817	5.899560354604904	2.451982624139334	1.987972377786656	0	-24.74788768789517	-3.395140484746916	-11.58000132048591	9.793848132074926	-0.4439473045988533	4.250290820099795	0	-21.37711699760957	1.659277491615732	3.206407148933037	0	0	0	0.7824242264091454	-15.1764928228852	33.30851493024888	7.046809765202008	24.88148184839975	0	0.01573441849396397	5.873202721415592	-13.22988944562097	43.89459357047221	6.86253078595578	33.48371369471267	0	0.01573441849396397
11.6846727	-27.42862116607134	-8.536521581680582	-258.2315992498304	0.2341366603171506	0.04326292228651554	-1.326684523481465	-22.57117169827992	-1.591976316804377	-3.241458145969817	5.899560354604904	2.451982624139334	1.987972377786656	0	-24.74788768789517	-3.395140484746916	-11.58000132048591	9.793848132074926	-0.4439473045988533	4.250290820099795	0	-21.37711699760957	1.659277491615732	3.206407148933037	0	0	0	0.7867838972009936	-15.17647371629777	33.30283456006698	7.124524306935578	24.89619373824016	0	0.02246317042809943	5.877170662821732	-13.23008112627208	43.88612232687767	6.942339863121226	33.49093744158007	0	0.02246317042809943
12.2253885	-60.59809391173353	30.94388549303368	64.24907717375012	0.2341366603171506	0.04326292228651554	-1.326684523481465	-22.57117169827992	-1.591976316804377	-3.241458145969817	5.899560354604904	2.451982624139334	1.987972377786656	0	-24.74788768789517	-3.395140484746916	-11.58000132048591	9.793848132074926	-0.4439473045988533	4.250290820099795	0	-21.37711699760957	1.659277491615732	3.206407148933037	0	0	0	0.7880871964132951	-15.17646800677278	33.30113814649897	7.14677808283077	24.90057956615552	0	0.02446939533655353	5.878356963681013	-13.23013840519467	43.88359327445104	6.965136460986109	33.49309319590979	0	0.02446939533655353
13.0488699	79.98132973113593	26.25687507758557	-54.2160346936194	0.2341366603171506	0.04326292228651554	-1.326684523481465	-22.57117169827992	-1.591976316804377	-3.241458145969817	5.899560354604904	2.451982624139334	1.987972377786656	0	-24.74788768789517	-3.395140484746916	-11.58000132048591	9.793848132074926	-0.4439473045988533	4.250290820099795	0	-21.37711699760957	1.659277491615732	3.206407148933037	0	0	0	0.782029426890589	-15.17649454898253	33.30902599860893	7.040437989930535	24.8801855561022	0	0.01514734798334939	5.872843300122096	-13.22987212916228	43.89535405583322	6.856006915249925	33.48307347605177	0	0.01514734798334939
